HIERARCHY
ROOT newVegas:Hips
{
	OFFSET 0.000000 96.479958 0.000000
	CHANNELS 6 Xposition Yposition Zposition Xrotation Yrotation Zrotation
	JOINT newVegas:Pelvis
	{
		OFFSET 0.000000 0.000000 0.000000
		CHANNELS 3 Xrotation Yrotation Zrotation
		JOINT newVegas:LeftUpLeg
		{
			OFFSET 18.735201 -5.666702 -4.541200
			CHANNELS 3 Xrotation Yrotation Zrotation
			JOINT newVegas:LeftLeg
			{
				OFFSET -0.021200 -31.938179 0.493100
				CHANNELS 3 Xrotation Yrotation Zrotation
				JOINT newVegas:LeftFoot
				{
					OFFSET 0.021200 -31.938179 -4.336299
					CHANNELS 3 Xrotation Yrotation Zrotation
					JOINT newVegas:LeftToeBase
					{
						OFFSET 0.943001 -26.722000 15.023500
						CHANNELS 3 Xrotation Yrotation Zrotation
						End Site
						{
							OFFSET 0.000000 30.670183 0.000000
						}
					}
				}
				JOINT newVegas:Left_PantLeg
				{
					OFFSET 0.663870 -9.044666 -1.108900
					CHANNELS 3 Xrotation Yrotation Zrotation
					End Site
					{
						OFFSET 1.415995 20.635357 0.000000
					}
				}
			}
		}
		JOINT newVegas:RightUpLeg
		{
			OFFSET -18.735201 -5.666702 -4.541200
			CHANNELS 3 Xrotation Yrotation Zrotation
			JOINT newVegas:RightLeg
			{
				OFFSET 0.018946 -31.938133 0.493100
				CHANNELS 3 Xrotation Yrotation Zrotation
				JOINT newVegas:RightFoot
				{
					OFFSET -0.018946 -31.938126 -4.336299
					CHANNELS 3 Xrotation Yrotation Zrotation
					JOINT newVegas:RightToeBase
					{
						OFFSET -0.943001 -26.722004 15.023500
						CHANNELS 3 Xrotation Yrotation Zrotation
						End Site
						{
							OFFSET 0.000000 30.670187 0.000000
						}
					}
				}
				JOINT newVegas:Right_PantLeg
				{
					OFFSET -0.661674 -9.044716 -1.108900
					CHANNELS 3 Xrotation Yrotation Zrotation
					End Site
					{
						OFFSET -1.415958 20.635269 0.000000
					}
				}
			}
		}
	}
	JOINT newVegas:Spine
	{
		OFFSET 0.000000 10.199997 -0.299500
		CHANNELS 3 Xrotation Yrotation Zrotation
		JOINT newVegas:Spine1
		{
			OFFSET 0.000000 11.900002 -1.516600
			CHANNELS 3 Xrotation Yrotation Zrotation
			JOINT newVegas:Spine2
			{
				OFFSET 0.000000 13.600006 -2.842500
				CHANNELS 3 Xrotation Yrotation Zrotation
				JOINT newVegas:Neck
				{
					OFFSET 0.000000 9.624100 -2.890100
					CHANNELS 3 Xrotation Yrotation Zrotation
					JOINT newVegas:Head
					{
						OFFSET 0.000000 14.068802 -1.351900
						CHANNELS 3 Xrotation Yrotation Zrotation
						JOINT newVegas:Hair_Back
						{
							OFFSET 0.000000 3.231903 -17.524799
							CHANNELS 3 Xrotation Yrotation Zrotation
							End Site
							{
								OFFSET 0.000000 19.849884 0.000000
							}
						}
						JOINT newVegas:Hair_Front
						{
							OFFSET 0.000000 31.260406 4.573800
							CHANNELS 3 Xrotation Yrotation Zrotation
							JOINT newVegas:Hair_Front1
							{
								OFFSET 0.000000 2.284103 11.993300
								CHANNELS 3 Xrotation Yrotation Zrotation
								JOINT newVegas:Hair_Front2
								{
									OFFSET 0.000000 2.284103 11.993300
									CHANNELS 3 Xrotation Yrotation Zrotation
									End Site
									{
										OFFSET 0.000000 12.208862 0.000000
									}
								}
							}
						}
						JOINT newVegas:Jowel
						{
							OFFSET 0.000000 -7.458206 6.864100
							CHANNELS 3 Xrotation Yrotation Zrotation
							End Site
							{
								OFFSET 0.000000 19.849884 0.000000
							}
						}
					}
				}
				JOINT newVegas:LeftShoulder
				{
					OFFSET 15.263000 10.923401 -0.547700
					CHANNELS 3 Xrotation Yrotation Zrotation
					JOINT newVegas:LeftArm
					{
						OFFSET 25.438599 -2.830597 -13.032500
						CHANNELS 3 Xrotation Yrotation Zrotation
						JOINT newVegas:LeftForeArm
						{
							OFFSET 29.960503 0.000000 0.000000
							CHANNELS 3 Xrotation Yrotation Zrotation
							JOINT newVegas:LeftHand
							{
								OFFSET 27.849251 0.000000 0.000000
								CHANNELS 3 Xrotation Yrotation Zrotation
								JOINT newVegas:LeftHandThumb1
								{
									OFFSET 4.487587 -3.305161 6.305391
									CHANNELS 3 Xrotation Yrotation Zrotation
									JOINT newVegas:LeftHandThumb2
									{
										OFFSET 5.480453 -3.164139 3.164143
										CHANNELS 3 Xrotation Yrotation Zrotation
										JOINT newVegas:LeftHandThumb3
										{
											OFFSET 5.159721 -2.978973 2.978967
											CHANNELS 3 Xrotation Yrotation Zrotation
											End Site
											{
												OFFSET 2.494507 5.926697 1.738678
											}
										}
									}
								}
								JOINT newVegas:LeftHandIndex1
								{
									OFFSET 18.578728 -0.527832 5.208049
									CHANNELS 3 Xrotation Yrotation Zrotation
									JOINT newVegas:LeftHandIndex2
									{
										OFFSET 3.192009 0.000000 0.000000
										CHANNELS 3 Xrotation Yrotation Zrotation
										JOINT newVegas:LeftHandIndex3
										{
											OFFSET 3.835129 0.000000 0.000000
											CHANNELS 3 Xrotation Yrotation Zrotation
											End Site
											{
												OFFSET -0.034599 3.816971 0.371180
											}
										}
									}
								}
								JOINT newVegas:LeftHandMiddle1
								{
									OFFSET 18.476105 0.000000 0.000000
									CHANNELS 3 Xrotation Yrotation Zrotation
									JOINT newVegas:LeftHandMiddle2
									{
										OFFSET 3.324875 0.000000 0.000000
										CHANNELS 3 Xrotation Yrotation Zrotation
										JOINT newVegas:LeftHandMiddle3
										{
											OFFSET 4.596550 0.000000 0.000000
											CHANNELS 3 Xrotation Yrotation Zrotation
											End Site
											{
												OFFSET 0.057701 4.578827 0.399218
											}
										}
									}
								}
								JOINT newVegas:LeftHandRing1
								{
									OFFSET 17.732719 0.121887 -4.201567
									CHANNELS 3 Xrotation Yrotation Zrotation
									JOINT newVegas:LeftHandRing2
									{
										OFFSET 2.733170 0.000000 0.000000
										CHANNELS 3 Xrotation Yrotation Zrotation
										JOINT newVegas:LeftHandRing3
										{
											OFFSET 3.178268 0.000000 0.000000
											CHANNELS 3 Xrotation Yrotation Zrotation
											End Site
											{
												OFFSET 0.119102 3.170624 0.185394
											}
										}
									}
								}
								JOINT newVegas:LeftHandPinky1
								{
									OFFSET 15.989624 -0.606689 -7.535461
									CHANNELS 3 Xrotation Yrotation Zrotation
									JOINT newVegas:LeftHandPinky2
									{
										OFFSET 2.538986 0.000000 0.000000
										CHANNELS 3 Xrotation Yrotation Zrotation
										JOINT newVegas:LeftHandPinky3
										{
											OFFSET 2.593102 0.000000 0.000000
											CHANNELS 3 Xrotation Yrotation Zrotation
											End Site
											{
												OFFSET -0.150902 2.584198 0.152708
											}
										}
									}
								}
							}
							JOINT newVegas:Left_Sleeve
							{
								OFFSET 0.267448 -0.649796 0.577675
								CHANNELS 3 Xrotation Yrotation Zrotation
								End Site
								{
									OFFSET 0.000000 15.991241 0.000000
								}
							}
							JOINT newVegas:Left_CapeC
							{
								OFFSET 15.715958 -8.608795 -6.935905
								CHANNELS 3 Xrotation Yrotation Zrotation
								JOINT newVegas:Left_CapeC1
								{
									OFFSET 0.000000 -8.688499 0.000000
									CHANNELS 3 Xrotation Yrotation Zrotation
									End Site
									{
										OFFSET 0.000000 8.688499 0.000000
									}
								}
							}
						}
						JOINT newVegas:Left_CapeB
						{
							OFFSET 26.118385 -8.608795 -7.079235
							CHANNELS 3 Xrotation Yrotation Zrotation
							JOINT newVegas:Left_CapeB1
							{
								OFFSET 0.000000 -8.688499 0.000000
								CHANNELS 3 Xrotation Yrotation Zrotation
								End Site
								{
									OFFSET 0.000000 8.688499 0.000000
								}
							}
						}
						JOINT newVegas:Left_CapeA
						{
							OFFSET 5.115639 -8.608795 -10.395809
							CHANNELS 3 Xrotation Yrotation Zrotation
							JOINT newVegas:Left_CapeA1
							{
								OFFSET 0.000000 -8.688499 0.000000
								CHANNELS 3 Xrotation Yrotation Zrotation
								End Site
								{
									OFFSET 0.000000 8.688499 0.000000
								}
							}
						}
					}
				}
				JOINT newVegas:RightShoulder
				{
					OFFSET -15.263000 10.923401 -0.547700
					CHANNELS 3 Xrotation Yrotation Zrotation
					JOINT newVegas:RightArm
					{
						OFFSET -25.438599 -2.830597 -13.032500
						CHANNELS 3 Xrotation Yrotation Zrotation
						JOINT newVegas:RightForeArm
						{
							OFFSET -29.960503 0.000000 0.000000
							CHANNELS 3 Xrotation Yrotation Zrotation
							JOINT newVegas:RightHand
							{
								OFFSET -27.849251 0.000000 0.000000
								CHANNELS 3 Xrotation Yrotation Zrotation
								JOINT newVegas:RightHandThumb1
								{
									OFFSET -4.487587 -3.305161 6.305391
									CHANNELS 3 Xrotation Yrotation Zrotation
									JOINT newVegas:RightHandThumb2
									{
										OFFSET -5.480453 -3.164139 3.164143
										CHANNELS 3 Xrotation Yrotation Zrotation
										JOINT newVegas:RightHandThumb3
										{
											OFFSET -5.159721 -2.978973 2.978967
											CHANNELS 3 Xrotation Yrotation Zrotation
											End Site
											{
												OFFSET -2.494507 5.926697 1.738678
											}
										}
									}
								}
								JOINT newVegas:RightHandIndex1
								{
									OFFSET -18.578728 -0.527832 5.208049
									CHANNELS 3 Xrotation Yrotation Zrotation
									JOINT newVegas:RightHandIndex2
									{
										OFFSET -3.192009 0.000000 0.000000
										CHANNELS 3 Xrotation Yrotation Zrotation
										JOINT newVegas:RightHandIndex3
										{
											OFFSET -3.835129 0.000000 0.000000
											CHANNELS 3 Xrotation Yrotation Zrotation
											End Site
											{
												OFFSET 0.034599 3.816971 0.371180
											}
										}
									}
								}
								JOINT newVegas:RightHandMiddle1
								{
									OFFSET -18.476105 0.000000 0.000000
									CHANNELS 3 Xrotation Yrotation Zrotation
									JOINT newVegas:RightHandMiddle2
									{
										OFFSET -3.324875 0.000000 0.000000
										CHANNELS 3 Xrotation Yrotation Zrotation
										JOINT newVegas:RightHandMiddle3
										{
											OFFSET -4.596550 0.000000 0.000000
											CHANNELS 3 Xrotation Yrotation Zrotation
											End Site
											{
												OFFSET -0.057701 4.578827 0.399218
											}
										}
									}
								}
								JOINT newVegas:RightHandRing1
								{
									OFFSET -17.732719 0.121887 -4.201567
									CHANNELS 3 Xrotation Yrotation Zrotation
									JOINT newVegas:RightHandRing2
									{
										OFFSET -2.733170 0.000000 0.000000
										CHANNELS 3 Xrotation Yrotation Zrotation
										JOINT newVegas:RightHandRing3
										{
											OFFSET -3.178268 0.000000 0.000000
											CHANNELS 3 Xrotation Yrotation Zrotation
											End Site
											{
												OFFSET -0.119102 3.170624 0.185394
											}
										}
									}
								}
								JOINT newVegas:RightHandPinky1
								{
									OFFSET -15.989624 -0.606689 -7.535461
									CHANNELS 3 Xrotation Yrotation Zrotation
									JOINT newVegas:RightHandPinky2
									{
										OFFSET -2.538986 0.000000 0.000000
										CHANNELS 3 Xrotation Yrotation Zrotation
										JOINT newVegas:RightHandPinky3
										{
											OFFSET -2.593102 0.000000 0.000000
											CHANNELS 3 Xrotation Yrotation Zrotation
											End Site
											{
												OFFSET 0.150902 2.584198 0.152708
											}
										}
									}
								}
							}
							JOINT newVegas:Right_CapeC
							{
								OFFSET -15.715958 -8.608795 -6.935905
								CHANNELS 3 Xrotation Yrotation Zrotation
								JOINT newVegas:Right_CapeC1
								{
									OFFSET 0.000000 -8.688499 0.000000
									CHANNELS 3 Xrotation Yrotation Zrotation
									End Site
									{
										OFFSET 0.000000 8.688499 0.000000
									}
								}
							}
							JOINT newVegas:Right_Sleeve
							{
								OFFSET -0.267448 -0.649994 0.577675
								CHANNELS 3 Xrotation Yrotation Zrotation
								End Site
								{
									OFFSET 0.000000 15.991302 0.000000
								}
							}
						}
						JOINT newVegas:Right_CapeA
						{
							OFFSET -5.115540 -8.608795 -10.395824
							CHANNELS 3 Xrotation Yrotation Zrotation
							JOINT newVegas:Right_CapeA1
							{
								OFFSET 0.000000 -8.688499 0.000000
								CHANNELS 3 Xrotation Yrotation Zrotation
								End Site
								{
									OFFSET 0.000000 8.688499 0.000000
								}
							}
						}
						JOINT newVegas:Right_CapeB
						{
							OFFSET -26.118187 -8.608795 -7.079266
							CHANNELS 3 Xrotation Yrotation Zrotation
							JOINT newVegas:Right_CapeB1
							{
								OFFSET 0.000000 -8.688499 0.000000
								CHANNELS 3 Xrotation Yrotation Zrotation
								End Site
								{
									OFFSET 0.000000 8.688499 0.000000
								}
							}
						}
					}
				}
				JOINT newVegas:Left_Collar
				{
					OFFSET 18.625099 8.655502 8.828100
					CHANNELS 3 Xrotation Yrotation Zrotation
					JOINT newVegas:Left_Collar1
					{
						OFFSET 14.783401 10.540405 -1.259500
						CHANNELS 3 Xrotation Yrotation Zrotation
						End Site
						{
							OFFSET 0.000000 18.199875 0.000000
						}
					}
				}
				JOINT newVegas:Collar_Back
				{
					OFFSET 0.000000 15.630707 -20.132601
					CHANNELS 3 Xrotation Yrotation Zrotation
					End Site
					{
						OFFSET 0.000000 22.523010 0.000000
					}
				}
				JOINT newVegas:Left_Peck
				{
					OFFSET 17.239599 -5.132599 25.482599
					CHANNELS 3 Xrotation Yrotation Zrotation
					End Site
					{
						OFFSET 0.000000 22.523010 0.000000
					}
				}
				JOINT newVegas:Right_Peck
				{
					OFFSET -17.239599 -5.132202 25.482599
					CHANNELS 3 Xrotation Yrotation Zrotation
					End Site
					{
						OFFSET 0.000000 22.523010 0.000000
					}
				}
				JOINT newVegas:Right_Collar
				{
					OFFSET -18.625099 8.655792 8.828100
					CHANNELS 3 Xrotation Yrotation Zrotation
					JOINT newVegas:Right_Collar1
					{
						OFFSET -14.783401 10.539993 -1.259500
						CHANNELS 3 Xrotation Yrotation Zrotation
						End Site
						{
							OFFSET 0.000000 18.199631 0.000000
						}
					}
				}
			}
		}
		JOINT newVegas:Belly
		{
			OFFSET 0.000000 -6.540398 9.014299
			CHANNELS 3 Xrotation Yrotation Zrotation
			End Site
			{
				OFFSET 0.000000 11.566666 0.000000
			}
		}
	}
	JOINT newVegas:ElvisFacialAnim_Joint
	{
		OFFSET 1.000000 -95.330101 -8.825800
		CHANNELS 3 Xrotation Yrotation Zrotation
		End Site
		{
			OFFSET 0.000000 35.315800 0.000000
		}
	}
}
MOTION
Frames: 4
Frame Time: 0.033333
-2.606176 89.573425 3.875924 5.035598 -14.117263 9.117095 -0.000000 0.000001 0.000000 -31.725792 -7.805766 -13.796679 4.409132 -4.922852 -6.504760 23.352574 -26.803440 6.071114 0.000000 0.000002 0.000000 0.000001 -0.000002 -0.000000 -0.712983 -14.901304 -13.446050 38.445366 6.298886 -5.757476 -12.583945 -1.291796 9.812247 -0.000003 -0.000001 0.000000 0.000004 0.000000 -0.000000 1.694781 4.757539 1.608707 5.178226 9.282894 2.129622 5.032465 9.286779 2.403694 -0.559271 -0.444532 -0.500134 -0.559265 -0.444532 -0.500138 -0.000001 -0.000000 -0.000000 -0.559270 -0.444539 -0.500133 -0.559272 -0.444533 -0.500141 -0.000001 -0.000000 -0.000001 -0.000001 -0.000000 0.000001 0.691787 -0.867587 -14.247219 -18.626238 -25.225191 -72.195830 -0.000006 -69.039347 -0.000010 -36.016841 9.241114 42.040354 -11.041395 -6.726508 10.279376 -17.957322 8.814267 2.343502 0.000001 -0.000000 -0.000003 5.883317 8.200052 -88.542269 6.214883 5.839784 -93.571146 0.000002 0.000000 -0.000001 7.770320 7.902415 -107.451293 4.319795 5.647793 -74.803528 0.000001 -0.000004 0.000001 7.317210 8.035194 -105.878826 3.633321 5.415802 -67.691136 -0.000001 -0.000002 -0.000004 10.384081 6.776455 -114.028506 1.767973 4.194414 -45.696582 -0.000006 0.000000 0.000001 -0.000001 0.000000 -0.000000 -0.000001 0.000000 -0.000000 -0.000002 0.000001 -0.000000 0.000001 0.000000 -0.000001 0.000001 0.000001 -0.000001 0.000001 0.000000 -0.000001 -0.000000 0.000001 -0.000002 -0.126114 13.089636 18.080786 -39.379883 64.695340 70.650309 -0.000042 37.702740 0.000037 -24.019781 -7.455923 -15.852203 17.910293 17.118440 -32.488345 12.698882 -52.015459 20.216132 0.000001 -0.000004 -0.000001 0.276729 -8.894035 1.745318 5.882853 -4.493339 105.274990 0.000001 -0.000001 0.000001 4.161823 -8.590699 42.201044 7.050000 -3.996578 120.945083 -0.000000 -0.000000 0.000003 -0.357879 -4.552484 57.062563 4.703400 -4.656942 90.569483 -0.000001 0.000002 -0.000000 -5.293308 -0.297794 51.792211 3.526262 -4.518047 75.931623 0.000001 0.000002 -0.000000 -0.000000 -0.000001 -0.000002 -0.000000 -0.000000 -0.000000 -0.000000 0.000000 -0.000000 -0.000000 0.000003 -0.000000 -0.000000 0.000003 0.000001 -0.000000 0.000003 -0.000000 -0.000000 0.000003 0.000003 0.000000 0.000000 -0.000002 0.000000 0.000000 -0.000002 0.000000 0.000000 -0.000002 0.000000 0.000000 -0.000002 0.000000 0.000000 -0.000002 0.000000 0.000000 -0.000002 0.000000 0.000000 -0.000002 -0.000000 0.000000 0.000001 -0.000000 0.000001 0.000000 
-2.567406 89.561440 3.887584 5.052706 -14.109077 9.120689 -0.000000 -0.000002 -0.000000 -31.726198 -7.649608 -13.859501 4.422375 -5.073202 -6.444460 23.390492 -26.799439 6.093648 -0.000000 0.000002 0.000000 0.000001 -0.000001 -0.000000 -0.710578 -14.974573 -13.534989 38.412625 6.372014 -5.698485 -12.657774 -1.304479 9.798084 -0.000003 0.000001 -0.000001 0.000002 0.000002 -0.000003 1.696179 4.771251 1.619088 5.181233 9.359593 2.147619 5.041639 9.360544 2.407322 -0.570547 -0.439056 -0.517816 -0.570551 -0.439052 -0.517809 -0.000000 -0.000001 -0.000001 -0.570552 -0.439055 -0.517806 -0.570551 -0.439046 -0.517814 0.000001 -0.000000 -0.000001 -0.000000 -0.000001 -0.000001 0.691844 -0.892033 -14.293324 -18.792507 -25.340297 -72.329914 -0.000021 -68.846176 -0.000017 -35.908702 9.337329 41.918766 -10.822505 -6.770449 10.394050 -18.219303 8.944375 2.440691 0.000003 -0.000001 -0.000004 5.897475 8.200076 -88.702198 6.171339 5.842306 -93.143297 0.000000 -0.000001 -0.000001 7.761027 7.905502 -107.350589 4.279966 5.636869 -74.398375 -0.000000 0.000001 0.000000 7.312278 8.035986 -105.713508 3.583097 5.395022 -67.158033 0.000000 -0.000002 -0.000004 10.396949 6.783730 -113.733359 1.728279 4.155388 -45.151133 -0.000003 -0.000003 0.000001 0.000004 0.000001 -0.000001 0.000004 0.000001 -0.000001 0.000003 0.000001 -0.000001 0.000001 0.000001 0.000001 0.000001 0.000002 0.000001 0.000001 0.000001 0.000001 0.000001 0.000002 0.000000 -0.123169 13.090142 18.045828 -38.537338 64.801891 69.663265 0.000009 38.124921 -0.000010 -24.500824 -7.764420 -16.020668 17.895671 17.116070 -32.517851 12.708813 -52.011078 20.230614 -0.000001 -0.000001 0.000001 0.277439 -8.901354 1.749100 5.889090 -4.491625 105.354691 0.000000 0.000002 -0.000003 4.166219 -8.599758 42.162918 7.050743 -3.996132 120.955642 -0.000001 0.000001 -0.000001 -0.356505 -4.551769 57.036707 4.703234 -4.656919 90.567106 -0.000001 0.000001 -0.000001 -5.329182 -0.290109 51.895624 3.527013 -4.518237 75.940926 0.000000 -0.000000 -0.000000 -0.000000 0.000000 0.000000 -0.000000 0.000000 0.000002 -0.000001 -0.000000 0.000002 0.000003 0.000002 -0.000003 0.000002 0.000002 -0.000002 0.000003 0.000002 -0.000003 0.000003 0.000002 -0.000000 0.000001 0.000000 0.000001 0.000001 0.000000 0.000001 0.000001 0.000000 0.000001 0.000001 0.000000 0.000001 0.000001 0.000000 0.000001 0.000001 0.000000 0.000001 0.000001 0.000000 0.000001 -0.000001 -0.000000 -0.000001 -0.000000 -0.000002 -0.000000 
-2.526083 89.552849 3.895709 5.064712 -14.111363 9.120820 0.000000 0.000001 -0.000001 -31.705738 -7.464225 -13.911128 4.411249 -5.367523 -6.403301 23.410151 -26.678857 6.077552 -0.000000 0.000000 -0.000000 0.000002 0.000001 0.000001 -0.714052 -14.971513 -13.561453 38.411143 6.404939 -5.713141 -12.704248 -1.307002 9.817688 -0.000003 -0.000001 0.000001 -0.000002 -0.000002 0.000000 1.698614 4.784310 1.624267 5.184234 9.435643 2.152716 5.051993 9.433599 2.396774 -0.571783 -0.438451 -0.520361 -0.571781 -0.438444 -0.520364 -0.000000 0.000000 -0.000002 -0.571782 -0.438439 -0.520360 -0.571773 -0.438425 -0.520365 0.000000 -0.000001 -0.000002 -0.000000 0.000000 -0.000000 0.691436 -0.899260 -14.288092 -18.985093 -25.475460 -72.489153 0.000071 -68.631961 0.000075 -35.826238 9.449674 41.758346 -10.610371 -6.817897 10.504955 -18.473860 9.071813 2.533523 0.000002 -0.000002 0.000000 5.911977 8.200078 -88.866519 6.127148 5.844559 -92.709245 0.000001 -0.000001 -0.000001 7.752794 7.908213 -107.261058 4.240077 5.625635 -73.991788 -0.000001 -0.000000 -0.000000 7.307490 8.036755 -105.556557 3.534013 5.374191 -66.635086 0.000002 0.000001 -0.000005 10.410247 6.789745 -113.467160 1.689689 4.116754 -44.616162 -0.000001 -0.000002 -0.000000 -0.000001 0.000001 -0.000000 -0.000001 0.000001 -0.000000 -0.000002 0.000001 0.000000 0.000001 -0.000001 0.000001 0.000001 0.000000 0.000002 0.000001 -0.000001 0.000001 0.000001 -0.000000 0.000001 -0.126312 13.099959 18.074050 -37.677079 65.006551 68.619222 -0.000015 38.494717 0.000020 -25.064270 -8.101257 -16.241997 17.853534 17.097570 -32.607156 12.769474 -52.014513 20.306451 -0.000003 -0.000002 -0.000001 0.276063 -8.901728 1.736590 5.888182 -4.491855 105.343346 -0.000000 0.000000 0.000002 4.163115 -8.589050 42.228502 7.051642 -3.995588 120.968948 -0.000001 -0.000000 0.000001 -0.344664 -4.560271 57.050658 4.703098 -4.656929 90.565706 -0.000001 0.000001 -0.000001 -5.397924 -0.269387 52.062646 3.522759 -4.517196 75.886988 0.000001 0.000003 0.000000 -0.000001 -0.000000 0.000001 -0.000001 0.000001 0.000004 -0.000002 0.000000 0.000001 0.000002 0.000004 -0.000002 0.000002 0.000004 -0.000001 0.000002 0.000004 -0.000002 0.000002 0.000004 0.000001 -0.000000 0.000000 0.000002 -0.000000 0.000000 0.000002 -0.000000 0.000000 0.000002 -0.000000 0.000000 0.000002 -0.000000 0.000000 0.000002 -0.000000 0.000000 0.000002 -0.000000 0.000000 0.000002 -0.000000 0.000001 -0.000001 0.000000 0.000001 -0.000001 
-2.484323 89.543610 3.900990 5.069561 -14.121052 9.119313 -0.000000 0.000000 0.000000 -31.678786 -7.275201 -13.951689 4.406370 -5.598280 -6.373235 23.447563 -26.614076 6.093105 -0.000000 -0.000000 -0.000000 0.000001 -0.000001 -0.000001 -0.746209 -14.958410 -13.596910 38.453046 6.448048 -5.729399 -12.724316 -1.302276 9.838849 -0.000002 0.000001 0.000000 -0.000000 0.000001 -0.000001 1.703320 4.804416 1.624710 5.190446 9.528801 2.151690 5.065745 9.523851 2.379625 -0.578154 -0.440799 -0.515350 -0.578149 -0.440806 -0.515365 -0.000000 0.000000 -0.000000 -0.578082 -0.440813 -0.515345 -0.578148 -0.440786 -0.515359 0.000001 0.000000 -0.000001 -0.000000 0.000000 -0.000001 0.690981 -0.919019 -14.303391 -19.205981 -25.584041 -72.664368 0.000019 -68.408204 0.000035 -35.651009 9.613620 41.692830 -10.405241 -6.869099 10.611864 -18.720423 9.196329 2.621825 0.000001 0.000000 -0.000006 5.926880 8.200049 -89.035204 6.082306 5.846511 -92.268950 -0.000002 0.000000 -0.000004 7.745652 7.910536 -107.182921 4.200108 5.614089 -73.583807 -0.000001 -0.000000 -0.000003 7.302872 8.037545 -105.408178 3.486120 5.353310 -66.122645 -0.000000 -0.000000 -0.000003 10.424045 6.794475 -113.230849 1.652248 4.078560 -44.092300 -0.000000 -0.000003 0.000000 0.000001 0.000001 -0.000000 0.000001 0.000001 -0.000000 -0.000000 0.000001 0.000000 0.000000 0.000002 -0.000000 0.000000 0.000002 0.000000 0.000000 0.000002 -0.000000 0.000001 0.000002 -0.000001 -0.125949 13.096040 18.073242 -37.106225 65.168522 67.883823 0.000015 38.730034 -0.000015 -25.627531 -8.365177 -16.431615 17.858351 17.134327 -32.601490 12.800864 -52.036148 20.345351 0.000001 -0.000006 -0.000007 0.275231 -8.894746 1.731788 5.886995 -4.492205 105.327808 -0.000000 0.000001 0.000001 4.154619 -8.569317 42.323626 7.051505 -3.995681 120.966653 0.000001 0.000001 0.000002 -0.337974 -4.567713 57.099958 4.704945 -4.656916 90.588416 0.000000 0.000001 0.000000 -5.543264 -0.232122 52.438627 3.517507 -4.515856 75.820359 -0.000001 0.000002 -0.000001 -0.000000 -0.000001 -0.000001 -0.000000 -0.000001 -0.000001 -0.000000 -0.000001 -0.000001 0.000003 0.000000 -0.000000 0.000002 0.000001 -0.000000 0.000003 0.000000 -0.000000 0.000003 0.000001 0.000002 0.000001 0.000000 -0.000001 0.000001 0.000000 -0.000001 0.000001 0.000000 -0.000001 0.000001 0.000000 -0.000001 0.000001 0.000000 -0.000001 0.000001 0.000000 -0.000001 0.000001 0.000000 -0.000001 0.000000 0.000001 -0.000000 -0.000000 0.000000 0.000000 
